<?xml version="1.0" encoding="UTF-8" standalone="no"?>
<!DOCTYPE svg PUBLIC "-//W3C//DTD SVG 1.1//EN"
 "http://www.w3.org/Graphics/SVG/1.1/DTD/svg11.dtd">
<!-- Generated by graphviz version 2.39.20160302.1709 (20160302.1709)
 -->
<!-- Title: %3 Pages: 1 -->
<svg width="210pt" height="289pt"
 viewBox="0.00 0.00 210.00 289.00" xmlns="http://www.w3.org/2000/svg" xmlns:xlink="http://www.w3.org/1999/xlink">
<g id="graph0" class="graph" transform="scale(1 1) rotate(0) translate(4 285)">
<title>%3</title>
<polygon fill="white" stroke="transparent" points="-4,4 -4,-285 206,-285 206,4 -4,4"/>
<g id="clust1" class="cluster">
<title>cluster_532eaabd95</title>
<polygon fill="lightblue" stroke="black" points="8,-8 8,-273 194,-273 194,-8 8,-8"/>
<text text-anchor="middle" x="101" y="-257.8" font-family="Roboto" font-size="14.00">Test</text>
</g>
<g id="clust2" class="cluster">
<title>cluster_21fa00d8f2</title>
<polygon fill="white" stroke="black" points="16,-28 16,-242 186,-242 186,-28 16,-28"/>
</g>
<!-- _532eaabd95 -->
<g id="node1" class="node">
<title>_532eaabd95</title>
</g>
<!-- struct_Label_21fa00d8f2 -->
<g id="node2" class="node">
<title>struct_Label_21fa00d8f2</title>
<polyline fill="none" stroke="black" stroke-width="3" points="28.5,-202.5 65.5,-202.5 "/>
<text text-anchor="start" x="35" y="-212.4" font-family="Roboto" font-size="12.00">Test</text>
<polygon fill="none" stroke="black" points="26,-200.5 26,-231.5 176,-231.5 176,-200.5 26,-200.5"/>
</g>
<!-- struct_Elems_49ba702681 -->
<g id="node3" class="node">
<title>struct_Elems_49ba702681</title>
<image xlink:href="Test_Test_connectToBluetooth.svg" width="150px" height="30px" preserveAspectRatio="xMinYMin meet" x="26" y="-177"/>
</g>
<!-- struct_Elems_8c8b5cdd5e -->
<g id="node4" class="node">
<title>struct_Elems_8c8b5cdd5e</title>
<image xlink:href="Test_Test_testText.svg" width="150px" height="30px" preserveAspectRatio="xMinYMin meet" x="26" y="-123"/>
</g>
<!-- struct_Elems_0d7fe57174 -->
<g id="node5" class="node">
<title>struct_Elems_0d7fe57174</title>
<image xlink:href="Test_Test_testPrint.svg" width="150px" height="30px" preserveAspectRatio="xMinYMin meet" x="26" y="-69"/>
</g>
</g>
</svg>
